<svg width="21" height="20" viewBox="0 0 21 20" fill="none" xmlns="http://www.w3.org/2000/svg">
<g clip-path="url(#clip0_159_445)">
<path d="M18 10L10.5 2.5L3 10H4.66667V15.8333C4.66667 16.2754 4.84226 16.6993 5.15482 17.0118C5.46738 17.3244 5.89131 17.5 6.33333 17.5H11.3333" stroke="#283D27" stroke-width="2" stroke-linecap="round" stroke-linejoin="round"/>
<path d="M8 17.4999V12.4999C8 12.0579 8.1756 11.634 8.48816 11.3214C8.80072 11.0088 9.22464 10.8333 9.66667 10.8333H11.3333C11.6583 10.8333 11.9617 10.9266 12.2175 11.0866" stroke="#283D27" stroke-width="2" stroke-linecap="round" stroke-linejoin="round"/>
<path d="M16.3334 17.9167L18.4317 15.7667C18.6917 15.4966 18.8369 15.1362 18.8369 14.7613C18.8369 14.3864 18.6917 14.026 18.4317 13.7559C18.3052 13.6242 18.1534 13.5195 17.9854 13.448C17.8174 13.3765 17.6368 13.3396 17.4542 13.3396C17.2716 13.3396 17.0909 13.3765 16.923 13.448C16.755 13.5195 16.6032 13.6242 16.4767 13.7559L16.3367 13.8992L16.1967 13.7559C16.0702 13.6242 15.9184 13.5195 15.7504 13.448C15.5825 13.3765 15.4018 13.3396 15.2192 13.3396C15.0366 13.3396 14.8559 13.3765 14.688 13.448C14.52 13.5195 14.3682 13.6242 14.2417 13.7559C13.982 14.026 13.8369 14.3862 13.8369 14.7609C13.8369 15.1356 13.982 15.4958 14.2417 15.7659L16.3334 17.9242V17.9167Z" stroke="#283D27" stroke-width="2" stroke-linecap="round" stroke-linejoin="round"/>
</g>
<defs>
<clipPath id="clip0_159_445">
<rect width="20" height="20" fill="white" transform="translate(0.5)"/>
</clipPath>
</defs>
</svg>
